# xmcd
#
# Track frame offsets:
# 150
# 14158
# 38870
# 51786
# 65168
# 79125
# 95476
#
# Disc length: 1590 seconds
#
#
# Revision: 0
# Processed by: cddbd v1.5.1PL0 Copyright (c) Steve Scherf et al.
# Submitted via: FreeRIP 2.51 
#
DISCID=5e063407
DTITLE=Ride - Enjoy
DYEAR=2002
DGENRE=Blues
TTITLE0=Oueen
TTITLE1=King
TTITLE2=Friend
TTITLE3=Miss Career
TTITLE4=Automatic
TTITLE5=Last Shot
TTITLE6=Feeding Time
EXTD=
EXTT0=
EXTT1=
EXTT2=
EXTT3=
EXTT4=
EXTT5=
EXTT6=
PLAYORDER=
